<mxfile host="app.diagrams.net" agent="Mozilla/5.0 (Windows NT 10.0; Win64; x64) AppleWebKit/537.36 (KHTML, like Gecko) Chrome/134.0.0.0 Safari/537.36 Edg/134.0.0.0" version="26.2.2">
  <diagram name="Página-1" id="cta3ttY8PZjpJqB65wfU">
    <mxGraphModel dx="1219" dy="671" grid="1" gridSize="10" guides="1" tooltips="1" connect="1" arrows="1" fold="1" page="1" pageScale="1" pageWidth="850" pageHeight="1100" math="0" shadow="0">
      <root>
        <mxCell id="0" />
        <mxCell id="1" parent="0" />
        <mxCell id="PJlzTkiHQ9quqO9YDHHo-3" value="" style="edgeStyle=orthogonalEdgeStyle;rounded=0;orthogonalLoop=1;jettySize=auto;html=1;" edge="1" parent="1" source="PJlzTkiHQ9quqO9YDHHo-1" target="PJlzTkiHQ9quqO9YDHHo-2">
          <mxGeometry relative="1" as="geometry" />
        </mxCell>
        <mxCell id="PJlzTkiHQ9quqO9YDHHo-1" value="Inicio" style="strokeWidth=2;html=1;shape=mxgraph.flowchart.start_1;whiteSpace=wrap;" vertex="1" parent="1">
          <mxGeometry x="210" y="20" width="200" height="60" as="geometry" />
        </mxCell>
        <mxCell id="PJlzTkiHQ9quqO9YDHHo-12" value="" style="edgeStyle=orthogonalEdgeStyle;rounded=0;orthogonalLoop=1;jettySize=auto;html=1;" edge="1" parent="1" source="PJlzTkiHQ9quqO9YDHHo-2" target="PJlzTkiHQ9quqO9YDHHo-9">
          <mxGeometry relative="1" as="geometry" />
        </mxCell>
        <mxCell id="PJlzTkiHQ9quqO9YDHHo-2" value="Números = []&lt;div&gt;i=0&lt;/div&gt;" style="rounded=1;whiteSpace=wrap;html=1;absoluteArcSize=1;arcSize=0;strokeWidth=2;dashed=1;" vertex="1" parent="1">
          <mxGeometry x="210" y="130" width="200" height="60" as="geometry" />
        </mxCell>
        <mxCell id="PJlzTkiHQ9quqO9YDHHo-16" value="" style="edgeStyle=orthogonalEdgeStyle;rounded=0;orthogonalLoop=1;jettySize=auto;html=1;" edge="1" parent="1" source="PJlzTkiHQ9quqO9YDHHo-14" target="PJlzTkiHQ9quqO9YDHHo-15">
          <mxGeometry relative="1" as="geometry" />
        </mxCell>
        <mxCell id="PJlzTkiHQ9quqO9YDHHo-14" value="&quot;Ingresa el primer número&quot;" style="strokeWidth=2;html=1;shape=mxgraph.flowchart.document2;whiteSpace=wrap;size=0.25;" vertex="1" parent="1">
          <mxGeometry x="210" y="370" width="200" height="70" as="geometry" />
        </mxCell>
        <mxCell id="PJlzTkiHQ9quqO9YDHHo-24" value="" style="edgeStyle=orthogonalEdgeStyle;rounded=0;orthogonalLoop=1;jettySize=auto;html=1;exitX=0.565;exitY=1.013;exitDx=0;exitDy=0;exitPerimeter=0;" edge="1" parent="1" source="PJlzTkiHQ9quqO9YDHHo-25">
          <mxGeometry relative="1" as="geometry">
            <mxPoint x="320" y="660" as="sourcePoint" />
            <mxPoint x="300" y="210" as="targetPoint" />
            <Array as="points">
              <mxPoint x="320" y="631" />
              <mxPoint x="320" y="670" />
              <mxPoint x="170" y="670" />
              <mxPoint x="170" y="560" />
              <mxPoint x="171" y="560" />
              <mxPoint x="171" y="210" />
            </Array>
          </mxGeometry>
        </mxCell>
        <mxCell id="PJlzTkiHQ9quqO9YDHHo-15" value="Números [i]" style="shape=parallelogram;html=1;strokeWidth=2;perimeter=parallelogramPerimeter;whiteSpace=wrap;rounded=1;arcSize=0;size=0.11249999999999999;" vertex="1" parent="1">
          <mxGeometry x="210" y="480" width="200" height="60" as="geometry" />
        </mxCell>
        <mxCell id="PJlzTkiHQ9quqO9YDHHo-6" value="" style="edgeStyle=orthogonalEdgeStyle;rounded=0;orthogonalLoop=1;jettySize=auto;html=1;" edge="1" parent="1" source="PJlzTkiHQ9quqO9YDHHo-9">
          <mxGeometry relative="1" as="geometry">
            <mxPoint x="308.1818181818182" y="370" as="targetPoint" />
          </mxGeometry>
        </mxCell>
        <mxCell id="PJlzTkiHQ9quqO9YDHHo-7" value="SI" style="edgeLabel;html=1;align=center;verticalAlign=middle;resizable=0;points=[];" vertex="1" connectable="0" parent="PJlzTkiHQ9quqO9YDHHo-6">
          <mxGeometry x="-0.5692" y="-2" relative="1" as="geometry">
            <mxPoint x="12" y="17" as="offset" />
          </mxGeometry>
        </mxCell>
        <mxCell id="PJlzTkiHQ9quqO9YDHHo-8" style="edgeStyle=orthogonalEdgeStyle;rounded=0;orthogonalLoop=1;jettySize=auto;html=1;exitX=1;exitY=0.5;exitDx=0;exitDy=0;exitPerimeter=0;" edge="1" parent="1" source="PJlzTkiHQ9quqO9YDHHo-9">
          <mxGeometry relative="1" as="geometry">
            <mxPoint x="376.3636363636364" y="267.3333333333333" as="targetPoint" />
          </mxGeometry>
        </mxCell>
        <mxCell id="PJlzTkiHQ9quqO9YDHHo-9" value="i&amp;lt;25" style="strokeWidth=2;html=1;shape=mxgraph.flowchart.decision;whiteSpace=wrap;" vertex="1" parent="1">
          <mxGeometry x="240" y="230" width="136.36363636363635" height="74.66666666666667" as="geometry" />
        </mxCell>
        <mxCell id="PJlzTkiHQ9quqO9YDHHo-10" value="" style="edgeStyle=orthogonalEdgeStyle;rounded=0;orthogonalLoop=1;jettySize=auto;html=1;exitX=1;exitY=0.5;exitDx=0;exitDy=0;exitPerimeter=0;entryX=0.5;entryY=0;entryDx=0;entryDy=0;entryPerimeter=0;" edge="1" parent="1" source="PJlzTkiHQ9quqO9YDHHo-9" target="PJlzTkiHQ9quqO9YDHHo-21">
          <mxGeometry relative="1" as="geometry">
            <mxPoint x="421.8181818181818" y="202" as="sourcePoint" />
            <mxPoint x="310" y="610" as="targetPoint" />
            <Array as="points">
              <mxPoint x="431" y="267" />
              <mxPoint x="431" y="710" />
              <mxPoint x="310" y="710" />
            </Array>
          </mxGeometry>
        </mxCell>
        <mxCell id="PJlzTkiHQ9quqO9YDHHo-11" value="NO" style="edgeLabel;html=1;align=center;verticalAlign=middle;resizable=0;points=[];" vertex="1" connectable="0" parent="PJlzTkiHQ9quqO9YDHHo-10">
          <mxGeometry x="-0.0615" relative="1" as="geometry">
            <mxPoint x="3" y="-10" as="offset" />
          </mxGeometry>
        </mxCell>
        <mxCell id="PJlzTkiHQ9quqO9YDHHo-13" value="" style="endArrow=none;html=1;rounded=0;exitX=0.062;exitY=0.557;exitDx=0;exitDy=0;exitPerimeter=0;" edge="1" parent="1" source="PJlzTkiHQ9quqO9YDHHo-9">
          <mxGeometry width="50" height="50" relative="1" as="geometry">
            <mxPoint x="250" y="270" as="sourcePoint" />
            <mxPoint x="310" y="230" as="targetPoint" />
          </mxGeometry>
        </mxCell>
        <mxCell id="PJlzTkiHQ9quqO9YDHHo-20" style="edgeStyle=orthogonalEdgeStyle;rounded=0;orthogonalLoop=1;jettySize=auto;html=1;exitX=0.5;exitY=1;exitDx=0;exitDy=0;exitPerimeter=0;" edge="1" parent="1" source="PJlzTkiHQ9quqO9YDHHo-21">
          <mxGeometry relative="1" as="geometry">
            <mxPoint x="310" y="920" as="targetPoint" />
            <Array as="points">
              <mxPoint x="310" y="910" />
            </Array>
          </mxGeometry>
        </mxCell>
        <mxCell id="PJlzTkiHQ9quqO9YDHHo-21" value="" style="strokeWidth=2;html=1;shape=mxgraph.flowchart.decision;whiteSpace=wrap;" vertex="1" parent="1">
          <mxGeometry x="241.82" y="760" width="136.36363636363635" height="74.66666666666667" as="geometry" />
        </mxCell>
        <mxCell id="PJlzTkiHQ9quqO9YDHHo-22" value="" style="edgeStyle=orthogonalEdgeStyle;rounded=0;orthogonalLoop=1;jettySize=auto;html=1;exitX=1;exitY=0.5;exitDx=0;exitDy=0;exitPerimeter=0;" edge="1" parent="1" source="PJlzTkiHQ9quqO9YDHHo-21">
          <mxGeometry relative="1" as="geometry">
            <mxPoint x="421.8181818181818" y="582" as="sourcePoint" />
            <mxPoint x="460" y="797" as="targetPoint" />
          </mxGeometry>
        </mxCell>
        <mxCell id="PJlzTkiHQ9quqO9YDHHo-23" value="NO" style="edgeLabel;html=1;align=center;verticalAlign=middle;resizable=0;points=[];" vertex="1" connectable="0" parent="PJlzTkiHQ9quqO9YDHHo-22">
          <mxGeometry x="-0.0615" relative="1" as="geometry">
            <mxPoint x="3" y="-10" as="offset" />
          </mxGeometry>
        </mxCell>
        <mxCell id="PJlzTkiHQ9quqO9YDHHo-25" value="i = i + 1" style="rounded=1;whiteSpace=wrap;html=1;absoluteArcSize=1;arcSize=0;strokeWidth=2;" vertex="1" parent="1">
          <mxGeometry x="208.18" y="570" width="200" height="60" as="geometry" />
        </mxCell>
      </root>
    </mxGraphModel>
  </diagram>
</mxfile>
